<svg width="24" height="24" viewBox="0 0 24 24" fill="none" xmlns="http://www.w3.org/2000/svg">
<path d="M21.7 5.7C21.2 5.2 20.5 4.9 19.8 4.9C19.1 4.9 18.1 4.9 17.1 4.9C17.1 4.8 17.1 4.7 17.1 4.7C17.1 4 16.8 3.3 16.3 2.8C15.8 2.3 15.2 2 14.4 2C13 2 11 2 9.6 2C8.8 2 8.2 2.3 7.7 2.8C7.2 3.3 6.9 4 6.9 4.7V4.9C5.9 4.9 5 4.9 4.2 4.9C3.5 4.9 2.8 5.2 2.3 5.7C1.8 6.2 1.5 6.9 1.5 7.6V10.1L9.3 11.6V11.3C9.3 10.5 10 9.8 11 9.8H13C14 9.8 14.7 10.5 14.7 11.3V11.6L22.5 10.1V7.6C22.5 6.9 22.2 6.2 21.7 5.7ZM8.3 4.7C8.3 4.4 8.4 4.1 8.7 3.8C8.9 3.6 9.2 3.4 9.6 3.4H14.5C14.8 3.4 15.1 3.5 15.4 3.8C15.6 4 15.8 4.3 15.8 4.7V4.9C13.5 4.9 10.8 4.9 8.5 4.9V4.7H8.3Z" fill="#495872" fill-opacity="0.7"/>
<path d="M14.7 13.6996C14.7 14.4996 14 15.1996 13 15.1996H11C10 15.1996 9.3 14.4996 9.3 13.6996V13.0996L1.5 11.5996V19.2996C1.5 19.9996 1.8 20.6996 2.3 21.1996C2.8 21.6996 3.5 21.9996 4.2 21.9996H19.8C20.5 21.9996 21.2 21.6996 21.7 21.1996C22.2 20.6996 22.5 19.9996 22.5 19.2996V11.5996L14.7 13.0996V13.6996Z" fill="#495872" fill-opacity="0.7"/>
<path d="M13.0008 13.7002C13.1008 13.7002 13.2008 13.6002 13.2008 13.6002V11.3002L13.0008 11.2002H11.0008C10.9008 11.2002 10.8008 11.3002 10.8008 11.3002V13.6002L11.0008 13.7002H13.0008Z" fill="#495872" fill-opacity="0.7"/>
</svg>
