<svg width="20" height="20" viewBox="0 0 20 20" fill="none" xmlns="http://www.w3.org/2000/svg">
<path d="M10 2C5.58189 2 2 5.58189 2 10C2 14.4181 5.58189 18 10 18C14.4181 18 18 14.4181 18 10C18 5.58189 14.4181 2 10 2ZM12.2979 13.1539C11.949 13.5786 11.4946 13.865 10.9646 14.0099C10.7342 14.0724 10.6288 14.1942 10.642 14.4346C10.6519 14.6716 10.642 14.9053 10.6387 15.1424C10.6387 15.3531 10.53 15.465 10.3226 15.4716C10.1877 15.4749 10.0527 15.4782 9.9177 15.4782C9.79918 15.4782 9.68066 15.4782 9.56214 15.4749C9.33827 15.4716 9.23292 15.3432 9.23292 15.1259C9.22963 14.9547 9.22963 14.7802 9.22963 14.6091C9.22634 14.2272 9.21317 14.214 8.84774 14.1547C8.38025 14.079 7.91934 13.9737 7.49136 13.7663C7.15556 13.6016 7.11934 13.5193 7.21481 13.1638C7.28724 12.9004 7.35967 12.637 7.44198 12.377C7.50123 12.186 7.5572 12.1004 7.65926 12.1004C7.71852 12.1004 7.79424 12.13 7.8963 12.1827C8.37037 12.4296 8.87407 12.5679 9.40411 12.6337C9.493 12.6436 9.58189 12.6502 9.67078 12.6502C9.9177 12.6502 10.158 12.6041 10.3918 12.5021C10.9811 12.2453 11.0733 11.5638 10.5761 11.1556C10.4082 11.0173 10.214 10.9152 10.0132 10.8263C9.4963 10.5992 8.95967 10.428 8.47243 10.135C7.6823 9.66091 7.18189 9.01235 7.24115 8.05103C7.307 6.96461 7.92263 6.28642 8.92016 5.92428C9.33169 5.77613 9.33498 5.77942 9.33498 5.35144C9.33498 5.20658 9.33169 5.06173 9.33827 4.91358C9.34815 4.59095 9.40082 4.53498 9.72346 4.5251C9.75967 4.5251 9.79918 4.5251 9.83539 4.5251C9.89794 4.5251 9.96049 4.5251 10.023 4.5251C10.0494 4.5251 10.0757 4.5251 10.0988 4.5251C10.7111 4.5251 10.7111 4.55144 10.7144 5.21317C10.7177 5.70041 10.7177 5.70041 11.2016 5.77613C11.5737 5.83539 11.9259 5.94403 12.2683 6.09547C12.456 6.17778 12.5284 6.30946 12.4691 6.51029C12.3835 6.80658 12.3012 7.10617 12.2091 7.39918C12.1498 7.57695 12.0938 7.65926 11.9885 7.65926C11.9292 7.65926 11.8568 7.63621 11.7646 7.59012C11.2905 7.35967 10.7934 7.24774 10.2733 7.24774C10.2074 7.24774 10.1383 7.25103 10.0724 7.25432C9.9177 7.2642 9.76625 7.28395 9.6214 7.3465C9.10782 7.57037 9.02551 8.13663 9.46337 8.4856C9.68395 8.66337 9.93745 8.78848 10.1975 8.89712C10.6519 9.08477 11.1062 9.26584 11.5374 9.50288C12.8938 10.2601 13.2626 11.9819 12.2979 13.1539Z" fill="#495872"/>
</svg>
