<?xml version="1.0" encoding="UTF-8"?>
<svg xmlns="http://www.w3.org/2000/svg" id="Layer_1" data-name="Layer 1" viewBox="0 0 24 24">
  <path d="m6.286,9.703c-.176,0-.352-.056-.5-.166-.283-.212-.401-.58-.295-.917l.784-2.513-1.981-1.612c-.267-.226-.364-.594-.243-.922.12-.328.433-.546.782-.546h2.501l.885-2.483c.121-.326.433-.542.781-.542s.66.216.781.542l.885,2.483h2.501c.35,0,.663.219.783.548s.022.698-.246.923l-1.971,1.606.815,2.484c.111.336-.002.706-.282.922-.281.216-.667.231-.964.038l-2.295-1.495-2.257,1.51c-.14.094-.302.141-.463.141Zm17.051,2.642l-7.702,8.409c-1.894,2.068-4.57,3.246-7.374,3.246h-4.262c-2.209,0-4-1.791-4-4v-5c0-2.209,1.791-4,4-4h7.787c1.374,0,2.46,1.26,2.164,2.685-.193.926-1.004,1.598-1.94,1.732l-4.162.583c-.547.078-.927.585-.848,1.131.078.547.585.926,1.131.848l4.252-.596c2.062-.294,3.617-2.087,3.617-4.17,0-.219-.032-.429-.065-.638l3.541-3.737c.455-.5,1.097-.803,1.794-.835.692-.034,1.363.209,1.878.678,1.052.958,1.138,2.602.189,3.665Z"/>
</svg>
