<svg enable-background="new 0 0 76.01 76.01" height="76.0106" viewBox="0 0 76.01 76.01" width="76.0106" xmlns="http://www.w3.org/2000/svg"><path d="m18.0025 57.0081v-34.0049h5.0007v-3.0004c.0001-1.1048.8956-2.0003 2.0003-2.0003h4.0005c1.1047 0 2.0002.8955 2.0003 2.0001v3.0006h14.002l-.0001-3.0006c0-1.1048.8956-2.0003 2.0003-2.0003h4.0006c1.1047 0 2.0003.8955 2.0003 2.0003v3.0006h5.0007v34.0049zm3.0004-3.0004h34.0047v-23.0033h-34.0047zm2.0003-7.0011h6.0008v5.0007h-6.0008zm8.0011 0h6.0008v5.0007h-6.0008zm8.0011 0h6.0009v5.0007h-6.0009zm8.0011 0h6.0009v5.0007h-6.0009zm-24.0033-7.001h6.0008v5.0007h-6.0008zm8.0011 0h6.0008v5.0007h-6.0008zm8.0011 0h6.0009v5.0007h-6.0009zm8.0011 0h6.0009v5.0007h-6.0009zm-16.0022-7.0008h6.0008v5.0007h-6.0008zm8.0011 0h6.0009v5.0007h-6.0009zm8.0011 0h6.0009v5.0007h-6.0009zm1.5002-13.002c-.8285 0-1.5002.6717-1.5002 1.5003v3.0004c0 .8285.6717 1.5002 1.5002 1.5002h1.0002c.8285 0 1.5002-.6717 1.5002-1.5002v-3.0004c0-.8286-.6717-1.5003-1.5002-1.5003zm-22.003 0c-.8286 0-1.5002.6717-1.5002 1.5002v3.0004c0 .8286.6716 1.5003 1.5002 1.5003h1.0001c.8286 0 1.5002-.6717 1.5002-1.5003v-3.0004c0-.8285-.6716-1.5002-1.5002-1.5002z" stroke-linejoin="round" stroke-width=".2"/></svg>