<svg fill="none" height="24" viewBox="0 0 24 24" width="24" xmlns="http://www.w3.org/2000/svg"><g fill="#292d32"><path d="m15.7997 2.21048c-.41-.41-1.12-.13-1.12.44v3.49c0 1.46 1.24 2.67 2.75 2.67.95.01 2.27.01 3.4.01.57 0 .87-.67.47-1.07-1.44-1.45-4.02-4.06-5.5-5.54z"/><path d="m20.5 10.19h-2.89c-2.37 0-4.3-1.93-4.3-4.3v-2.89c0-.55-.45-1-1-1h-4.24c-3.08 0-5.57 2-5.57 5.57v8.86c0 3.57 2.49 5.57 5.57 5.57h7.86c3.08 0 5.57-2 5.57-5.57v-5.24c0-.55-.45-1-1-1zm-9 7.56h-4c-.41 0-.75-.34-.75-.75s.34-.75.75-.75h4c.41 0 .75.34.75.75s-.34.75-.75.75zm2-4h-6c-.41 0-.75-.34-.75-.75s.34-.75.75-.75h6c.41 0 .75.34.75.75s-.34.75-.75.75z"/></g></svg>