<svg fill="none" height="24" viewBox="0 0 24 24" width="24" xmlns="http://www.w3.org/2000/svg"><g fill="#212121"><path d="m8 6c0 .55228-.44772 1-1 1s-1-.44772-1-1 .44772-1 1-1 1 .44772 1 1z"/><path d="m7 10c.55228 0 1-.44772 1-1s-.44772-1-1-1-1 .44772-1 1 .44772 1 1 1z"/><path d="m8 12c0 .5523-.44772 1-1 1s-1-.4477-1-1 .44772-1 1-1 1 .4477 1 1z"/><path d="m8 15c0 .5523-.44772 1-1 1s-1-.4477-1-1 .44772-1 1-1 1 .4477 1 1z"/><path d="m7 19c.55228 0 1-.4477 1-1s-.44772-1-1-1-1 .4477-1 1 .44772 1 1 1z"/><path d="m14 16c.5523 0 1-.4477 1-1s-.4477-1-1-1-1 .4477-1 1 .4477 1 1 1z"/><path d="m17 16c.5523 0 1-.4477 1-1s-.4477-1-1-1-1 .4477-1 1 .4477 1 1 1z"/><path d="m17 13c.5523 0 1-.4477 1-1s-.4477-1-1-1-1 .4477-1 1 .4477 1 1 1z"/><path d="m15 12c0 .5523-.4477 1-1 1s-1-.4477-1-1 .4477-1 1-1 1 .4477 1 1z"/><path d="m17 10c.5523 0 1-.44772 1-1s-.4477-1-1-1-1 .44772-1 1 .4477 1 1 1z"/><path d="m15 9c0 .55228-.4477 1-1 1s-1-.44772-1-1 .4477-1 1-1 1 .44772 1 1z"/><path d="m14 5v-.75c0-1.24264-1.0074-2.25-2.25-2.25h-6.5c-1.24264 0-2.25 1.00736-2.25 2.25v16.5c0 .4142.33579.75.75.75h16.5c.4142 0 .75-.3358.75-.75v-13.5c0-1.24264-1.0074-2.25-2.25-2.25zm-9.5-.75c0-.41421.33579-.75.75-.75h6.5c.4142 0 .75.33579.75.75v.75h-.25c-1.2426 0-2.25 1.00736-2.25 2.25v12.75h-5.5zm10 15.75v-1.5h2v1.5zm3.5-2.25c0-.4142-.3358-.75-.75-.75h-3.5c-.4142 0-.75.3358-.75.75v2.25h-1.5v-12.75c0-.41421.3358-.75.75-.75h6.5c.4142 0 .75.33579.75.75v12.75h-1.5z"/></g></svg>