<?xml version="1.0" encoding="UTF-8"?>
<svg xmlns="http://www.w3.org/2000/svg" id="Layer_1" data-name="Layer 1" viewBox="0 0 24 24">
  <path d="m23.409,14.091c.786.787.786,2.068,0,2.855l-6.38,6.027c-.684.684-1.585,1.025-2.488,1.025-.906,0-1.813-.344-2.505-1.035-.668-.668-1.036-1.556-1.036-2.501s.368-1.833,1.036-2.501l5.62-5.324c.201-.191.517-.182.707.019.189.2.181.517-.02.707l-5.61,5.314c-.47.47-.733,1.107-.733,1.785s.264,1.315.743,1.794c.991.991,2.6.989,3.589,0l6.38-6.027c.387-.387.387-1.034-.01-1.431-.385-.385-1.057-.384-1.441,0l-6.38,6.027c-.201.19-.518.18-.707-.02-.189-.201-.181-.517.02-.707l6.37-6.018c.741-.743,2.081-.754,2.846.01Zm.591-9.591v7c0,.276-.224.5-.5.5s-.5-.224-.5-.5v-7c0-.477-.097-.931-.271-1.346l-7.528,7.528c-.851.851-1.98,1.318-3.182,1.318-.016,0-.03,0-.044,0-1.197,0-2.326-.467-3.177-1.318L1.271,3.154c-.174.415-.271.869-.271,1.346v10c0,1.93,1.57,3.5,3.5,3.5h4c.276,0,.5.224.5.5s-.224.5-.5.5h-4c-2.481,0-4.5-2.019-4.5-4.5V4.5C0,2.019,2.019,0,4.5,0h15c2.481,0,4.5,2.019,4.5,4.5Zm-1.814-2.217c-.643-.777-1.601-1.283-2.686-1.283H4.5c-1.084,0-2.043.506-2.686,1.283l7.691,7.692c.666.665,1.53,1.049,2.492,1.025h.017c.939,0,1.817-.364,2.479-1.025l7.691-7.692Z"/>
</svg>
