<svg width="20" height="22" viewBox="0 0 20 22" fill="none" xmlns="http://www.w3.org/2000/svg">
<path d="M6 4.75C5.59 4.75 5.25 4.41 5.25 4V1C5.25 0.59 5.59 0.25 6 0.25C6.41 0.25 6.75 0.59 6.75 1V4C6.75 4.41 6.41 4.75 6 4.75Z" fill="#121926"/>
<path d="M14 4.75C13.59 4.75 13.25 4.41 13.25 4V1C13.25 0.59 13.59 0.25 14 0.25C14.41 0.25 14.75 0.59 14.75 1V4C14.75 4.41 14.41 4.75 14 4.75Z" fill="#121926"/>
<path d="M6.5 13.5003C6.37 13.5003 6.24 13.4703 6.12 13.4203C5.99 13.3703 5.89 13.3003 5.79 13.2103C5.61 13.0203 5.5 12.7703 5.5 12.5003C5.5 12.3703 5.53 12.2403 5.58 12.1203C5.63 12.0003 5.7 11.8903 5.79 11.7903C5.89 11.7003 5.99 11.6303 6.12 11.5803C6.48 11.4303 6.93 11.5103 7.21 11.7903C7.39 11.9803 7.5 12.2403 7.5 12.5003C7.5 12.5603 7.49 12.6303 7.48 12.7003C7.47 12.7603 7.45 12.8203 7.42 12.8803C7.4 12.9403 7.37 13.0003 7.33 13.0603C7.3 13.1103 7.25 13.1603 7.21 13.2103C7.02 13.3903 6.76 13.5003 6.5 13.5003Z" fill="#121926"/>
<path d="M10 13.5C9.87 13.5 9.74 13.47 9.62 13.42C9.49 13.37 9.39 13.3 9.29 13.21C9.11 13.02 9 12.77 9 12.5C9 12.37 9.03 12.24 9.08 12.12C9.13 12 9.2 11.89 9.29 11.79C9.39 11.7 9.49 11.63 9.62 11.58C9.98 11.42 10.43 11.51 10.71 11.79C10.89 11.98 11 12.24 11 12.5C11 12.56 10.99 12.63 10.98 12.7C10.97 12.76 10.95 12.82 10.92 12.88C10.9 12.94 10.87 13 10.83 13.06C10.8 13.11 10.75 13.16 10.71 13.21C10.52 13.39 10.26 13.5 10 13.5Z" fill="#121926"/>
<path d="M13.5 13.5C13.37 13.5 13.24 13.47 13.12 13.42C12.99 13.37 12.89 13.3 12.79 13.21C12.75 13.16 12.71 13.11 12.67 13.06C12.63 13 12.6 12.94 12.58 12.88C12.55 12.82 12.53 12.76 12.52 12.7C12.51 12.63 12.5 12.56 12.5 12.5C12.5 12.24 12.61 11.98 12.79 11.79C12.89 11.7 12.99 11.63 13.12 11.58C13.49 11.42 13.93 11.51 14.21 11.79C14.39 11.98 14.5 12.24 14.5 12.5C14.5 12.56 14.49 12.63 14.48 12.7C14.47 12.76 14.45 12.82 14.42 12.88C14.4 12.94 14.37 13 14.33 13.06C14.3 13.11 14.25 13.16 14.21 13.21C14.02 13.39 13.76 13.5 13.5 13.5Z" fill="#121926"/>
<path d="M6.5 17C6.37 17 6.24 16.97 6.12 16.92C6 16.87 5.89 16.8 5.79 16.71C5.61 16.52 5.5 16.26 5.5 16C5.5 15.87 5.53 15.74 5.58 15.62C5.63 15.49 5.7 15.38 5.79 15.29C6.16 14.92 6.84 14.92 7.21 15.29C7.39 15.48 7.5 15.74 7.5 16C7.5 16.26 7.39 16.52 7.21 16.71C7.02 16.89 6.76 17 6.5 17Z" fill="#121926"/>
<path d="M10 17C9.74 17 9.48 16.89 9.29 16.71C9.11 16.52 9 16.26 9 16C9 15.87 9.03 15.74 9.08 15.62C9.13 15.49 9.2 15.38 9.29 15.29C9.66 14.92 10.34 14.92 10.71 15.29C10.8 15.38 10.87 15.49 10.92 15.62C10.97 15.74 11 15.87 11 16C11 16.26 10.89 16.52 10.71 16.71C10.52 16.89 10.26 17 10 17Z" fill="#121926"/>
<path d="M13.5 17C13.24 17 12.98 16.89 12.79 16.71C12.7 16.62 12.63 16.51 12.58 16.38C12.53 16.26 12.5 16.13 12.5 16C12.5 15.87 12.53 15.74 12.58 15.62C12.63 15.49 12.7 15.38 12.79 15.29C13.02 15.06 13.37 14.95 13.69 15.02C13.76 15.03 13.82 15.05 13.88 15.08C13.94 15.1 14 15.13 14.06 15.17C14.11 15.2 14.16 15.25 14.21 15.29C14.39 15.48 14.5 15.74 14.5 16C14.5 16.26 14.39 16.52 14.21 16.71C14.02 16.89 13.76 17 13.5 17Z" fill="#121926"/>
<path d="M18.5 8.83997H1.5C1.09 8.83997 0.75 8.49997 0.75 8.08997C0.75 7.67997 1.09 7.33997 1.5 7.33997H18.5C18.91 7.33997 19.25 7.67997 19.25 8.08997C19.25 8.49997 18.91 8.83997 18.5 8.83997Z" fill="#121926"/>
<path d="M14 21.75H6C2.35 21.75 0.25 19.65 0.25 16V7.5C0.25 3.85 2.35 1.75 6 1.75H14C17.65 1.75 19.75 3.85 19.75 7.5V16C19.75 19.65 17.65 21.75 14 21.75ZM6 3.25C3.14 3.25 1.75 4.64 1.75 7.5V16C1.75 18.86 3.14 20.25 6 20.25H14C16.86 20.25 18.25 18.86 18.25 16V7.5C18.25 4.64 16.86 3.25 14 3.25H6Z" fill="#121926"/>
</svg>
