<svg width="20" height="20" viewBox="0 0 20 20" fill="none" xmlns="http://www.w3.org/2000/svg">
<g clip-path="url(#clip0_6_39618)">
<circle cx="9.99985" cy="10.0001" r="5" fill="#2660EA"/>
<path fill-rule="evenodd" clip-rule="evenodd" d="M10.0002 18.4999C14.6946 18.4999 18.5002 14.6943 18.5002 9.99992C18.5002 5.3055 14.6946 1.49992 10.0002 1.49992C5.30573 1.49992 1.50015 5.3055 1.50015 9.99992C1.50015 14.6943 5.30573 18.4999 10.0002 18.4999ZM10.0002 19.9999C15.523 19.9999 20.0002 15.5228 20.0002 9.99992C20.0002 4.47708 15.523 -7.62939e-05 10.0002 -7.62939e-05C4.4773 -7.62939e-05 0.000152588 4.47708 0.000152588 9.99992C0.000152588 15.5228 4.4773 19.9999 10.0002 19.9999Z" fill="#2660EA"/>
</g>
<defs>
<clipPath id="clip0_6_39618">
<rect width="20" height="20" fill="white"/>
</clipPath>
</defs>
</svg>
