<svg height="56" viewBox="0 0 56 56" width="56" xmlns="http://www.w3.org/2000/svg"><path d="m28.0468 30.707c.9844 0 1.875-.4453 2.8828-1.4765l20.3904-20.1797c-.8668-.8438-2.484-1.2422-4.8043-1.2422h-37.7345c-1.9688 0-3.3516.375-4.125 1.1484l20.5078 20.2735c1.0078 1.0078 1.9218 1.4765 2.8828 1.4765zm-25.3359 13.711 16.5703-16.3828-16.6172-16.3829c-.3516.6563-.5391 1.7813-.5391 3.3985v25.875c0 1.664.2109 2.8359.586 3.4922zm50.6251-.0235c.3514-.6797.5391-1.8281.5391-3.4687v-25.875c0-1.5703-.1642-2.6953-.516-3.3281l-16.5467 16.3125zm-43.8517 3.7969h37.7341c1.969 0 3.3284-.375 4.1016-1.125l-16.8748-16.7344-1.5703 1.5703c-1.5937 1.5469-3.1172 2.25-4.8281 2.25-1.711 0-3.2344-.7031-4.8281-2.25l-1.5703-1.5703-16.8516 16.711c.8906.7734 2.4609 1.1484 4.6875 1.1484z"/></svg>