<svg width="24" height="24" viewBox="0 0 24 24" fill="none" xmlns="http://www.w3.org/2000/svg">
<path d="M16 22.75H3C2.04 22.75 1.25 21.96 1.25 21V8C1.25 3.58 3.58 1.25 8 1.25H16C20.42 1.25 22.75 3.58 22.75 8V16C22.75 20.42 20.42 22.75 16 22.75ZM8 2.75C4.42 2.75 2.75 4.42 2.75 8V21C2.75 21.14 2.86 21.25 3 21.25H16C19.58 21.25 21.25 19.58 21.25 16V8C21.25 4.42 19.58 2.75 16 2.75H8Z" fill="#121926"/>
<path d="M7.94975 17.75C7.47975 17.75 7.04975 17.58 6.72975 17.27C6.34975 16.89 6.17972 16.35 6.26972 15.77L6.54972 13.79C6.60972 13.36 6.87974 12.81 7.18974 12.5L12.3797 7.30999C14.1597 5.52999 15.7097 6.32999 16.6897 7.30999C17.4597 8.07999 17.8097 8.88999 17.7297 9.69999C17.6697 10.36 17.3197 10.98 16.6897 11.62L11.4997 16.81C11.1897 17.12 10.6497 17.39 10.2097 17.46L8.22975 17.74C8.13975 17.74 8.03975 17.75 7.94975 17.75ZM14.5297 7.74999C14.1597 7.74999 13.8297 7.98999 13.4497 8.35999L8.25974 13.55C8.17974 13.63 8.05974 13.88 8.03974 13.99L7.75974 15.97C7.74974 16.07 7.75972 16.16 7.79972 16.2C7.83972 16.24 7.92973 16.25 8.02973 16.24L10.0097 15.96C10.1297 15.94 10.3697 15.82 10.4497 15.74L15.6397 10.55C16.0197 10.17 16.2197 9.83999 16.2497 9.53999C16.2797 9.19999 16.0797 8.79999 15.6397 8.35999C15.1997 7.93999 14.8497 7.74999 14.5297 7.74999Z" fill="#121926"/>
<path d="M15.4198 12.5797C15.3498 12.5797 15.2798 12.5697 15.2198 12.5497C13.4098 12.0397 11.9598 10.5997 11.4498 8.77972C11.3398 8.37972 11.5698 7.96972 11.9698 7.84972C12.3698 7.73972 12.7798 7.96972 12.8898 8.36972C13.2598 9.67972 14.3098 10.7297 15.6198 11.0997C16.0198 11.2097 16.2498 11.6297 16.1398 12.0297C16.0498 12.3597 15.7498 12.5797 15.4198 12.5797Z" fill="#121926"/>
</svg>
