<svg height="20" viewBox="0 0 20 20" width="20" xmlns="http://www.w3.org/2000/svg"><path d="m10.5 12c.8284 0 1.5.6716 1.5 1.5v.5c0 1.9714-1.8595 4-5 4-3.14049 0-5-2.0286-5-4v-.5c0-.8284.67157-1.5 1.5-1.5zm-3.5-6.5c1.51878 0 2.75 1.23122 2.75 2.75s-1.23122 2.75-2.75 2.75-2.75-1.23122-2.75-2.75 1.23122-2.75 2.75-2.75zm9-3.5c1.0544 0 1.9182.81588 1.9945 1.85074l.0055.14926v2c0 1.05436-.8159 1.91817-1.8507 1.99451l-.1493.00549h-1.501l-1.198 1.59979c-.5294.70621-1.6045.42011-1.7767-.37553l-.0177-.11162-.0058-.11264-.0008-1.065-.0776-.01968c-.7254-.21847-1.2772-.83779-1.3978-1.60052l-.0191-.16554-.0055-.14926v-2c0-1.05436.8159-1.91817 1.8507-1.99451l.1493-.00549z" fill="#212121"/></svg>