<svg fill="none" height="16" viewBox="0 0 16 16" width="16" xmlns="http://www.w3.org/2000/svg"><g fill="#212121"><path d="m6.63206 2.44712c.83114-.54344 1.90513-.54342 2.73627.00003l5.40527 3.53439c.1401.09158.225.24715.2264.41448.0013.16734-.0811.32425-.2197.41805l-5.3787 3.64103c-.84642.573-1.95639.573-2.80282.0001l-4.59878-3.11295v3.15775c0 .2761-.22386.5-.5.5s-.5-.2239-.5-.5v-4c0-.01693.00084-.03366.00248-.05015-.00177-.01778-.002608-.03574-.00246-.05383.00133-.16733.0863-.32291.22636-.41449z"/><path d="m3 11.5v-2.27329l3.03822 2.05659c1.18501.8021 2.73897.8021 3.92396-.0001l3.03782-2.0564v2.2732c0 .1187-.0422.2334-.119.3238 0 0 0 0-.381-.3238l.381.3238-.0014.0016-.0019.0023-.0059.0068-.0193.0218c-.0162.018-.0391.043-.0685.074-.0588.0619-.1439.1478-.2542.2496-.2202.2033-.5428.472-.9587.7403-.8306.5359-2.04874 1.0798-3.571 1.0798-1.52227 0-2.74046-.5439-3.57111-1.0798-.41587-.2683-.73848-.537-.95873-.7403-.11029-.1018-.19542-.1877-.25423-.2496-.02942-.0309-.05231-.0559-.06851-.074l-.01929-.0218-.00586-.0068-.00198-.0023-.00076-.0009.38037-.3245c-.38096.3239-.38037.3245-.38037.3245-.07684-.0904-.11963-.2058-.11963-.3245z"/></g></svg>