<svg width="20" height="22" viewBox="0 0 20 22" fill="none" xmlns="http://www.w3.org/2000/svg">
<path d="M9.99994 13.1704C7.86994 13.1704 6.12994 11.4404 6.12994 9.30043C6.12994 7.16043 7.86994 5.44043 9.99994 5.44043C12.1299 5.44043 13.8699 7.17043 13.8699 9.31043C13.8699 11.4504 12.1299 13.1704 9.99994 13.1704ZM9.99994 6.94043C8.69994 6.94043 7.62994 8.00043 7.62994 9.31043C7.62994 10.6204 8.68994 11.6804 9.99994 11.6804C11.3099 11.6804 12.3699 10.6204 12.3699 9.31043C12.3699 8.00043 11.2999 6.94043 9.99994 6.94043Z" fill="#121926"/>
<path d="M10.0001 21.76C8.52005 21.76 7.03005 21.2 5.87005 20.09C2.92005 17.25 -0.339946 12.72 0.890054 7.33C2.00005 2.44 6.27005 0.25 10.0001 0.25C10.0001 0.25 10.0001 0.25 10.0101 0.25C13.7401 0.25 18.0101 2.44 19.1201 7.34C20.3401 12.73 17.0801 17.25 14.1301 20.09C12.9701 21.2 11.4801 21.76 10.0001 21.76ZM10.0001 1.75C7.09005 1.75 3.35005 3.3 2.36005 7.66C1.28005 12.37 4.24005 16.43 6.92005 19C8.65005 20.67 11.3601 20.67 13.0901 19C15.7601 16.43 18.7201 12.37 17.6601 7.66C16.6601 3.3 12.9101 1.75 10.0001 1.75Z" fill="#121926"/>
</svg>
