<svg width="24" height="24" viewBox="0 0 24 24" fill="none" xmlns="http://www.w3.org/2000/svg">
<path d="M8.99996 2C6.37996 2 4.24996 4.13 4.24996 6.75C4.24996 9.32 6.25996 11.4 8.87996 11.49C8.95996 11.48 9.03996 11.48 9.09996 11.49C9.11996 11.49 9.12996 11.49 9.14996 11.49C9.15996 11.49 9.15996 11.49 9.16996 11.49C11.73 11.4 13.74 9.32 13.75 6.75C13.75 4.13 11.62 2 8.99996 2Z" fill="#121926"/>
<path d="M14.08 14.15C11.29 12.29 6.73996 12.29 3.92996 14.15C2.65996 15 1.95996 16.15 1.95996 17.38C1.95996 18.61 2.65996 19.75 3.91996 20.59C5.31996 21.53 7.15996 22 8.99996 22C10.84 22 12.68 21.53 14.08 20.59C15.34 19.74 16.04 18.6 16.04 17.36C16.03 16.13 15.34 14.99 14.08 14.15Z" fill="#121926"/>
<path d="M19.9903 7.3401C20.1503 9.2801 18.7703 10.9801 16.8603 11.2101C16.8503 11.2101 16.8503 11.2101 16.8403 11.2101H16.8103C16.7503 11.2101 16.6903 11.2101 16.6403 11.2301C15.6703 11.2801 14.7803 10.9701 14.1103 10.4001C15.1403 9.4801 15.7303 8.1001 15.6103 6.6001C15.5403 5.7901 15.2603 5.0501 14.8403 4.4201C15.2203 4.2301 15.6603 4.1101 16.1103 4.0701C18.0703 3.9001 19.8203 5.3601 19.9903 7.3401Z" fill="#121926"/>
<path d="M21.9902 16.5904C21.9102 17.5604 21.2902 18.4004 20.2502 18.9704C19.2502 19.5204 17.9902 19.7804 16.7402 19.7504C17.4602 19.1004 17.8802 18.2904 17.9602 17.4304C18.0602 16.1904 17.4702 15.0004 16.2902 14.0504C15.6202 13.5204 14.8402 13.1004 13.9902 12.7904C16.2002 12.1504 18.9802 12.5804 20.6902 13.9604C21.6102 14.7004 22.0802 15.6304 21.9902 16.5904Z" fill="#121926"/>
</svg>
