<svg width="28" height="28" viewBox="0 0 28 28" fill="none" xmlns="http://www.w3.org/2000/svg">
<path d="M4.66667 4.66668H9.345V2.33334H2.33334V9.33334H4.66667V4.66668ZM4.66667 18.6667H2.33334V25.6667H9.345V23.3333H4.66667V18.6667ZM23.3333 23.3333H18.6667V25.6667H25.6667V18.6667H23.3333V23.3333ZM18.6667 4.66668H23.3333V9.33334H25.6667V2.33334H18.6667V4.66668Z" fill="white"/>
<path d="M5.83334 12.8333H12.8333V5.83334H5.83334V12.8333ZM8.16667 8.16668H10.5V10.5H8.16667V8.16668ZM5.83334 22.1667H12.8333V15.1667H5.83334V22.1667ZM8.16667 17.5H10.5V19.8333H8.16667V17.5ZM22.1667 5.83334H15.1667V12.8333H22.1667V5.83334ZM19.8333 10.5H17.5V8.16668H19.8333V10.5ZM15.1783 15.1667H17.5117V17.5H15.1783V15.1667ZM17.5117 17.5H19.845V19.8333H17.5117V17.5ZM19.845 19.8333H22.1783V22.1667H19.845V19.8333ZM19.845 15.1667H22.1783V17.5H19.845V15.1667Z" fill="white"/>
</svg>
