<svg fill="none" height="24" viewBox="0 0 24 24" width="24" xmlns="http://www.w3.org/2000/svg"><path d="m20 9.5v-2.7c0-1.68016 0-2.52024-.327-3.16197-.2876-.56449-.7465-1.02343-1.311-1.31105-.6418-.32698-1.4818-.32698-3.162-.32698h-6.4c-1.68016 0-2.52024 0-3.16197.32698-.56449.28762-1.02343.74656-1.31105 1.31105-.32698.64173-.32698 1.48181-.32698 3.16197v10.4c0 1.6802 0 2.5202.32698 3.162.28762.5645.74656 1.0234 1.31105 1.311.64173.327 1.48181.327 3.16197.327h5.2m0-11h-6m2 4h-2m8-8h-8m8.5 8.0022c.1762-.5008.524-.9232.9817-1.1922.4578-.2691.996-.3674 1.5193-.2776.5233.0897.998.3618 1.3399.768.342.4062.5291.9203.5283 1.4513 0 1.4989-2.2483 2.2483-2.2483 2.2483m.029 3h.01" stroke="#000" stroke-linecap="round" stroke-linejoin="round" stroke-width="2"/></svg>