<svg width="24" height="24" viewBox="0 0 24 24" fill="none" xmlns="http://www.w3.org/2000/svg">
<path d="M15 22.75H9C3.57 22.75 1.25 20.43 1.25 15V9C1.25 3.57 3.57 1.25 9 1.25H15C20.43 1.25 22.75 3.57 22.75 9V15C22.75 20.43 20.43 22.75 15 22.75ZM9 2.75C4.39 2.75 2.75 4.39 2.75 9V15C2.75 19.61 4.39 21.25 9 21.25H15C19.61 21.25 21.25 19.61 21.25 15V9C21.25 4.39 19.61 2.75 15 2.75H9Z" fill="#121926"/>
<path fill-rule="evenodd" clip-rule="evenodd" d="M12 7.25C9.35599 7.25 7.25 9.37243 7.25 12C7.25 12.4142 6.91421 12.75 6.5 12.75C6.08579 12.75 5.75 12.4142 5.75 12C5.75 8.54757 8.52401 5.75 12 5.75C14.0578 5.75 15.597 6.61109 16.6069 7.45428C16.6558 7.49509 16.7035 7.5359 16.75 7.57661V6.81C16.75 6.39578 17.0858 6.06 17.5 6.06C17.9142 6.06 18.25 6.39578 18.25 6.81V9.56C18.25 9.97421 17.9142 10.31 17.5 10.31H15.06C14.6458 10.31 14.31 9.97421 14.31 9.56C14.31 9.14578 14.6458 8.81 15.06 8.81H15.8788C15.8051 8.74235 15.7274 8.67403 15.6456 8.60571C14.823 7.91891 13.6122 7.25 12 7.25ZM17.5 11.25C17.9142 11.25 18.25 11.5858 18.25 12C18.25 15.4542 15.4542 18.25 12 18.25C10.2195 18.25 8.82441 17.3548 7.91082 16.5253C7.89373 16.5097 7.87678 16.4942 7.85999 16.4787V17.19C7.85999 17.6042 7.5242 17.94 7.10999 17.94C6.69577 17.94 6.35999 17.6042 6.35999 17.19V14.44C6.35999 14.0258 6.69577 13.69 7.10999 13.69H9.59C10.0042 13.69 10.34 14.0258 10.34 14.44C10.34 14.8542 10.0042 15.19 9.59 15.19H8.68297C8.75765 15.2644 8.83642 15.3396 8.91917 15.4147C9.69058 16.1152 10.7405 16.75 12 16.75C14.6258 16.75 16.75 14.6258 16.75 12C16.75 11.5858 17.0858 11.25 17.5 11.25Z" fill="#121926"/>
</svg>
