<svg width="20" height="20" viewBox="0 0 20 20" fill="none" xmlns="http://www.w3.org/2000/svg">
<g clip-path="url(#clip0_6_39608)">
<mask id="path-1-inside-1_6_39608" fill="white">
<path fill-rule="evenodd" clip-rule="evenodd" d="M10.0002 18.4999C14.6946 18.4999 18.5002 14.6943 18.5002 9.99992C18.5002 5.3055 14.6946 1.49992 10.0002 1.49992C5.30573 1.49992 1.50015 5.3055 1.50015 9.99992C1.50015 14.6943 5.30573 18.4999 10.0002 18.4999ZM10.0002 19.9999C15.523 19.9999 20.0002 15.5228 20.0002 9.99992C20.0002 4.47707 15.523 -8.39233e-05 10.0002 -8.39233e-05C4.4773 -8.39233e-05 0.000152588 4.47707 0.000152588 9.99992C0.000152588 15.5228 4.4773 19.9999 10.0002 19.9999Z"/>
</mask>
<path d="M17.0002 9.99992C17.0002 13.8659 13.8661 16.9999 10.0002 16.9999V19.9999C15.523 19.9999 20.0002 15.5228 20.0002 9.99992H17.0002ZM10.0002 2.99992C13.8661 2.99992 17.0002 6.13392 17.0002 9.99992H20.0002C20.0002 4.47707 15.523 -8.39233e-05 10.0002 -8.39233e-05V2.99992ZM3.00015 9.99992C3.00015 6.13392 6.13416 2.99992 10.0002 2.99992V-8.39233e-05C4.4773 -8.39233e-05 0.000152588 4.47707 0.000152588 9.99992H3.00015ZM10.0002 16.9999C6.13416 16.9999 3.00015 13.8659 3.00015 9.99992H0.000152588C0.000152588 15.5228 4.47731 19.9999 10.0002 19.9999V16.9999ZM18.5002 9.99992C18.5002 14.6943 14.6946 18.4999 10.0002 18.4999V21.4999C16.3514 21.4999 21.5002 16.3512 21.5002 9.99992H18.5002ZM10.0002 1.49992C14.6946 1.49992 18.5002 5.3055 18.5002 9.99992H21.5002C21.5002 3.64864 16.3514 -1.50008 10.0002 -1.50008V1.49992ZM1.50015 9.99992C1.50015 5.3055 5.30573 1.49992 10.0002 1.49992V-1.50008C3.64888 -1.50008 -1.49985 3.64864 -1.49985 9.99992H1.50015ZM10.0002 18.4999C5.30573 18.4999 1.50015 14.6943 1.50015 9.99992H-1.49985C-1.49985 16.3512 3.64888 21.4999 10.0002 21.4999V18.4999Z" fill="#9AA3B2" mask="url(#path-1-inside-1_6_39608)"/>
</g>
<defs>
<clipPath id="clip0_6_39608">
<rect width="20" height="20" fill="white"/>
</clipPath>
</defs>
</svg>
