<svg fill="none" height="24" viewBox="0 0 25 24" width="25" xmlns="http://www.w3.org/2000/svg"><path d="m20.7938 9.66593c-.5762-.53197-1.154-1.06192-1.7294-1.59083-.6674-.61303-1.3347-1.22606-2.002-1.83906-.5518-.50966-1.1028-1.0153-1.6538-1.52193-.2295-.21075-.4598-.42354-.6901-.63328-.2564-.2361-.612.08612-.612.43773v3.08836c-1.7049.09649-3.4273.60743-4.94161 1.57866-1.11658.71739-2.12571 1.71042-2.93949 2.90292-.67954.995-1.23702 2.1076-1.65858 3.3031-.31332.8866-.5656 1.8057-.73407 2.7509-.07162.4033-.13428.8157-.16439 1.2261-.01729.2411.13202.4244.3117.4833.09603.0284.20752.0101.29705-.0456.22673-.1446.33105-.6104.47039-.8592.09338-.1744.18048-.3147.33368-.533.18311-.2614.38086-.5097.58596-.7417.22956-.2607.47931-.5055.73246-.7316.3353-.2958.68769-.5623 1.05147-.8004.40409-.2636.82183-.4926 1.24923-.6961.53063-.2483 1.0759-.451 1.6277-.6181.3092-.0933.6201-.1743.9343-.2452.3129-.0733.6318-.11.9416-.1834.6331-.0963 1.2679-.1571 1.9043-.1845v3.0298c0 .4494.3533.5625.6242.4276.2889-.2381.56-.5148.8383-.7701.5762-.532 1.154-1.0619 1.7294-1.5908.6673-.6131 1.3347-1.2261 2.002-1.8391.5518-.5097 1.1028-1.0153 1.6537-1.5219 1.029-.9449.9123-1.297-.162-2.28267z" stroke="#000" stroke-width="1.5"/></svg>