<svg width="16" height="16" viewBox="0 0 16 16" fill="none" xmlns="http://www.w3.org/2000/svg">
<path d="M8.43169 1.18378C8.15946 1.05398 7.84318 1.05398 7.57094 1.18378C7.3356 1.29599 7.20584 1.49081 7.14041 1.59769C7.07276 1.70818 7.00332 1.84894 6.93563 1.98613L5.49848 4.89765L2.28378 5.36753C2.13245 5.38961 1.97718 5.41228 1.85123 5.44256C1.72939 5.47186 1.50412 5.53523 1.32485 5.72445C1.11745 5.94337 1.01992 6.24418 1.0594 6.54313C1.09352 6.80155 1.23875 6.98505 1.32022 7.08027C1.40443 7.1787 1.51686 7.28817 1.62644 7.39485L3.95164 9.65958L3.40299 12.8584C3.37709 13.0093 3.35052 13.164 3.34029 13.2932C3.3304 13.4181 3.32084 13.6521 3.44531 13.8812C3.58928 14.1463 3.84519 14.3322 4.14177 14.3871C4.39818 14.4347 4.6177 14.3533 4.73346 14.3052C4.85316 14.2556 4.9921 14.1825 5.12754 14.1112L8.00132 12.5999L10.8751 14.1112C11.0105 14.1825 11.1495 14.2556 11.2692 14.3052C11.3849 14.3533 11.6045 14.4347 11.8609 14.3871C12.1574 14.3322 12.4134 14.1463 12.5573 13.8812C12.6818 13.6521 12.6722 13.4181 12.6623 13.2932C12.6521 13.164 12.6255 13.0093 12.5996 12.8585L12.051 9.65958L14.3762 7.39482C14.4858 7.28815 14.5982 7.17869 14.6824 7.08027C14.7639 6.98505 14.9091 6.80155 14.9432 6.54313C14.9827 6.24418 14.8852 5.94337 14.6778 5.72445C14.4985 5.53523 14.2732 5.47186 14.1514 5.44256C14.0255 5.41228 13.8702 5.38961 13.7189 5.36753L10.5042 4.89765L9.06703 1.98618C8.99934 1.84898 8.92988 1.70819 8.86223 1.59769C8.79679 1.49081 8.66704 1.29599 8.43169 1.18378Z" fill="#EAAA08"/>
</svg>
