<svg height="1024" viewBox="0 0 1024 1024" width="1024" xmlns="http://www.w3.org/2000/svg"><path d="m180.4 292.9c0-121 98.1-219.1 219.1-219.1s219 98.2 219 219.1-98.1 219.1-219.1 219.1-219-98.1-219-219.1zm252.2 519.1c0-97.9 61.1-181.5 147.3-214.7-22.4-7.5-49.4-13.1-79.9-13.1l-201.1.4c-91.1-.4-150.8 49.9-150.8 49.9-110.8 83.8-140.3 287.2-148.1 389.5l573.4.1c-82.7-34.9-140.8-116.7-140.8-212.1zm428.4 0c0 109.6-88.8 198.4-198.4 198.4s-198.4-88.8-198.4-198.4 88.8-198.4 198.4-198.4 198.4 88.8 198.4 198.4zm-74.2-61.9-17.9-17.9-143.4 117-45.8-58.1-36.4 38 82.1 106.9z"/></svg>