<svg width="14" height="14" viewBox="0 0 14 14" fill="none" xmlns="http://www.w3.org/2000/svg">
<g clip-path="url(#clip0_1_61827)">
<path d="M10.8125 2.47932C10.9455 2.80089 11.2007 3.0565 11.5221 3.18995L12.649 3.65673C12.9706 3.78994 13.2261 4.04545 13.3593 4.36705C13.4925 4.68865 13.4925 5.04999 13.3593 5.37159L12.8929 6.49768C12.7596 6.81943 12.7594 7.18114 12.8933 7.50272L13.3589 8.62848C13.425 8.78777 13.459 8.9585 13.459 9.13093C13.459 9.30336 13.4251 9.47411 13.3591 9.63342C13.2931 9.79272 13.1964 9.93746 13.0744 10.0594C12.9525 10.1813 12.8077 10.278 12.6484 10.3439L11.5223 10.8103C11.2007 10.9433 10.9451 11.1985 10.8117 11.5199L10.3449 12.6468C10.2117 12.9684 9.95616 13.2239 9.63456 13.3571C9.31296 13.4903 8.95162 13.4903 8.63002 13.3571L7.50392 12.8907C7.18232 12.7578 6.8211 12.7581 6.49969 12.8914L5.37279 13.3575C5.05137 13.4904 4.69034 13.4903 4.369 13.3572C4.04766 13.2241 3.7923 12.9689 3.65899 12.6477L3.19208 11.5204C3.05911 11.1989 2.80389 10.9432 2.48251 10.8098L1.35561 10.343C1.03415 10.2099 0.778717 9.95452 0.645457 9.6331C0.512197 9.31169 0.512016 8.95051 0.644955 8.62897L1.1114 7.50287C1.24428 7.18126 1.24401 6.82005 1.11064 6.49864L0.64487 5.37093C0.578832 5.21165 0.544828 5.04091 0.544801 4.86848C0.544773 4.69605 0.578722 4.5253 0.644709 4.366C0.710695 4.20669 0.807425 4.06195 0.929372 3.94004C1.05132 3.81814 1.19609 3.72145 1.35542 3.65552L2.48151 3.18907C2.80281 3.05622 3.05826 2.80132 3.19181 2.48032L3.65859 1.35341C3.7918 1.03182 4.04731 0.776305 4.36891 0.643095C4.69051 0.509884 5.05185 0.509884 5.37345 0.643095L6.49954 1.10954C6.82115 1.24242 7.18237 1.24215 7.50378 1.10878L8.63115 0.643818C8.95271 0.510682 9.31398 0.510709 9.63551 0.643894C9.95705 0.777078 10.2125 1.03251 10.3458 1.35403L10.8127 2.48127L10.8125 2.47932Z" fill="#2970FF"/>
<path fill-rule="evenodd" clip-rule="evenodd" d="M9.7416 5.16499C9.83513 5.01809 9.86646 4.84006 9.82872 4.67006C9.79098 4.50006 9.68725 4.35201 9.54035 4.25849C9.39346 4.16497 9.21543 4.13363 9.04542 4.17137C8.87542 4.20911 8.72738 4.31284 8.63385 4.45974L6.06398 8.49786L4.88798 7.02786C4.77926 6.89187 4.62097 6.80464 4.44793 6.78536C4.27489 6.76608 4.10128 6.81633 3.96529 6.92505C3.8293 7.03377 3.74207 7.19206 3.72279 7.3651C3.70351 7.53814 3.75376 7.71175 3.86248 7.84774L5.61248 10.0352C5.6777 10.1169 5.76146 10.1817 5.85681 10.2245C5.95216 10.2672 6.05633 10.2865 6.16065 10.2809C6.26498 10.2752 6.36646 10.2448 6.45663 10.192C6.54681 10.1392 6.62308 10.0657 6.6791 9.97749L9.7416 5.16499Z" fill="white"/>
</g>
<defs>
<clipPath id="clip0_1_61827">
<rect width="14" height="14" fill="white"/>
</clipPath>
</defs>
</svg>
